# generated from PmQm by Jehee Lee
:FULLY-SPECIFIED
:DEGREES
367
root 15.78195555 38.40860858 -59.68312825 -179.7543318 19.69111629 176.43459
RightUpLeg -5.984871276 -2.729904396 -7.898622647
RightLeg 51.67777008 -2.727241515 -5.493625809
RightFoot 8.021727204 34.46789135 -9.959803652
RightToes 2.32829e-010 -1.59028e-015 9.93923e-017
Spine -8.615737823 2.739157942 2.825787768
Spine1 13.05120699 4.637527439 -9.763503017
HEad -10.24917151 -4.023258346 2.809232198
LeftShoulder1 9.93923e-017 0 1.22299e-017
LeftArm -9.244655508 44.94620471 -71.2246392
LeftForeArm -7.754399472 -4.268921786 -6.17987125
LeftHand 0.992905 7.03592 -5.03757
RightShoulder 1.98785e-016 -4.96962e-017 1.55301e-017
RightArm 26.74857932 -33.49647376 89.80611261
RightForeArm -50.5587284 20.74354785 -16.03337121
RightHand 1.09086 -10.2491 -4.27313
LeftUpLeg -26.10585702 -2.663051866 -2.766893924
LeftLeg 22.84311859 0 0
LeftFoot -5.045599955 1.148868257 -1.921917967
LeftToes 8.82235e-011 9.04645e-011 1.87288e-011
368
root 16.07990264 38.53700323 -61.18164021 179.7450407 21.53927612 175.4758349
RightUpLeg -10.83691179 -1.05399019 -8.235418261
RightLeg 58.79945586 -3.887133187 -10.44517803
RightFoot 13.74347161 31.17793933 -4.306002512
RightToes 2.32829e-010 -1.59028e-015 9.93923e-017
Spine -7.156561866 2.192774118 -0.3495186524
Spine1 12.58159011 3.779607961 -8.859403652
HEad -10.95362685 -3.058958446 2.324656645
LeftShoulder1 9.93923e-017 0 1.22299e-017
LeftArm -6.599681884 39.93016714 -73.60455984
LeftForeArm -10.45827374 -5.325537262 -6.581468644
LeftHand 0.970123 6.82072 -4.29005
RightShoulder 1.98785e-016 -4.96962e-017 1.55301e-017
RightArm 20.68931634 -36.20283342 90.30526425
RightForeArm -43.36041459 19.73561349 -9.223474288
RightHand 1.03939 -10.2002 -2.94224
LeftUpLeg -23.67694846 -2.793519982 -2.93397589
LeftLeg 25.59326894 0 0
LeftFoot -7.734879644 1.699285913 -2.315424403
LeftToes 8.82235e-011 9.04645e-011 1.87288e-011
369
root 16.40975709 38.80596671 -62.78637553 179.5057205 23.04735285 175.5389793
RightUpLeg -14.82905303 -0.1880629532 -7.360451905
RightLeg 62.6011456 -2.993315596 -12.61853169
RightFoot 12.5080312 27.06536807 -2.345062659
RightToes 2.32829e-010 -1.59028e-015 9.93923e-017
Spine -6.580303668 1.426715935 -2.500291036
Spine1 12.02732856 2.53177302 -7.099113957
HEad -10.67315642 -1.707370066 1.845580681
LeftShoulder1 9.93923e-017 0 1.22299e-017
LeftArm -3.809392417 36.06141893 -75.4896582
LeftForeArm -14.22375103 -8.752497789 -5.514277912
LeftHand 0.942205 6.57551 -3.70458
RightShoulder 1.98785e-016 -4.96962e-017 1.55301e-017
RightArm 18.87628383 -39.36248856 90.13882366
RightForeArm -38.50217185 18.41094486 -4.684044826
RightHand 1.03827 -10.3208 -2.49664
LeftUpLeg -20.12030648 -2.585406233 -2.707463635
LeftLeg 25.94342813 0 0
LeftFoot -9.464502448 1.96075983 -2.972150252
LeftToes 8.82235e-011 9.04645e-011 1.87288e-011
370
root 16.76823415 39.10022876 -64.40351697 179.531935 23.70460622 176.2467432
RightUpLeg -18.02848545 -0.3494341839 -5.773826553
RightLeg 63.18329018 -0.7218041237 -11.17931117
RightFoot 8.461416545 23.24604577 -2.143804446
RightToes 2.32829e-010 -1.59028e-015 9.93923e-017
Spine -6.315187585 0.1881540979 -4.080899583
Spine1 11.21637537 0.7403442811 -4.786584006
HEad -9.704885422 -0.1793111848 1.644131506
LeftShoulder1 9.93923e-017 0 1.22299e-017
LeftArm 3.522023335 33.1756349 -76.94828246
LeftForeArm -23.2206879 -14.72302294 -1.994601734
LeftHand 0.92793 6.45217 -3.57146
RightShoulder 1.98785e-016 -4.96962e-017 1.55301e-017
RightArm 20.91748875 -43.21982022 89.5968458
RightForeArm -37.60342559 17.83731527 -3.186553323
RightHand 1.04716 -10.4116 -2.45404
LeftUpLeg -16.04924848 -2.074453806 -2.256688693
LeftLeg 24.76095021 0 0
LeftFoot -10.85430304 1.264792583 -3.443276813
LeftToes 8.82235e-011 9.04645e-011 1.87288e-011
371
root 17.20102735 39.3243055 -65.91412799 179.5973552 24.26207163 176.9880353
RightUpLeg -20.85230442 -0.636981166 -4.186207208
RightLeg 61.23375788 1.570603045 -8.305095459
RightFoot 5.047712106 19.82184172 -1.878097907
RightToes 2.32829e-010 -1.59028e-015 9.93923e-017
Spine -6.224798102 -1.022952818 -5.439737597
Spine1 10.74555347 -0.9501929401 -2.762801687
HEad -8.939168264 1.155813541 1.581018609
LeftShoulder1 9.93923e-017 0 1.22299e-017
LeftArm 16.56862281 30.40327029 -78.14285115
LeftForeArm -38.25626847 -20.89606089 4.907431017
LeftHand 0.925915 6.44464 -3.3863
RightShoulder 1.98785e-016 -4.96962e-017 1.55301e-017
RightArm 22.97534893 -47.46687037 88.38872627
RightForeArm -38.47724037 17.9757794 -3.561399452
RightHand 1.02044 -10.2376 -2.25741
LeftUpLeg -12.05991536 -1.15412428 -1.72523713
LeftLeg 23.00069165 0 0
LeftFoot -11.77322107 0.1968259781 -3.791824287
LeftToes 8.82235e-011 9.04645e-011 1.87288e-011
372
root 17.892039 39.45480002 -67.25804591 179.5938582 25.15383743 177.4971204
RightUpLeg -23.39935142 -0.815169301 -2.874535132
RightLeg 57.27174843 3.151789725 -5.95159477
RightFoot 2.231117307 16.71790103 -0.9468092417
RightToes 2.32829e-010 -1.59028e-015 9.93923e-017
Spine -6.476834001 -1.996266867 -6.638626845
Spine1 10.81716567 -2.272585215 -1.176215133
HEad -8.783275448 2.163025137 1.510925589
LeftShoulder1 9.93923e-017 0 1.22299e-017
LeftArm 28.24911652 27.30387139 -78.72481338
LeftForeArm -50.97349422 -24.47461644 12.78925711
LeftHand 0.913312 6.34459 -3.16304
RightShoulder 1.98785e-016 -4.96962e-017 1.55301e-017
RightArm 24.95092971 -51.58391205 86.49370238
RightForeArm -40.64563351 18.51131628 -5.096103606
RightHand 0.9969 -10.0451 -2.20697
LeftUpLeg -8.174382892 0.0440824349 -0.9006669876
LeftLeg 20.96328105 0 0
LeftFoot -12.13739359 -0.7431065578 -4.417736527
LeftToes 8.82235e-011 9.04645e-011 1.87288e-011
373
root 18.75487828 39.52211482 -68.49492006 179.5868026 25.93435182 177.907482
RightUpLeg -25.53987835 -1.512513342 -1.732216983
RightLeg 51.47310207 4.105653821 -4.317388241
RightFoot -0.1922740749 14.06237424 0.2838464101
RightToes 2.32829e-010 -1.59028e-015 9.93923e-017
Spine -6.788023987 -2.989844041 -7.723762149
Spine1 10.93477683 -3.545371936 0.5403474714
HEad -8.843318695 2.986940174 1.472876773
LeftShoulder1 9.93923e-017 0 1.22299e-017
LeftArm 31.88723707 23.92340025 -78.45912758
LeftForeArm -53.63688285 -26.43298621 17.1456967
LeftHand 0.89027 6.12658 -3.34082
RightShoulder 1.98785e-016 -4.96962e-017 1.55301e-017
RightArm 27.40953019 -55.24304649 84.25524685
RightForeArm -43.19013309 19.08278336 -7.056815929
RightHand 1.02418 -10.1508 -2.66158
LeftUpLeg -4.107509293 1.008187244 0.07512285135
LeftLeg 18.23237396 0 0
LeftFoot -12.23700438 -1.451236862 -5.227690239
LeftToes 8.82235e-011 9.04645e-011 1.87288e-011
374
root 19.63499307 39.52645185 -69.66622902 179.6184465 26.4444374 178.2686087
RightUpLeg -27.15168972 -2.831079585 -0.7490462345
RightLeg 43.90724478 4.742745314 -3.053212877
RightFoot -1.058765359 11.88515332 1.294682259
RightToes 2.32829e-010 -1.59028e-015 9.93923e-017
Spine -6.845519161 -4.022498645 -8.720262644
Spine1 10.81351879 -4.81636505 2.402248215
HEad -8.700458735 3.742787612 1.490087455
LeftShoulder1 9.93923e-017 0 1.22299e-017
LeftArm 30.01286693 20.50987836 -77.73300493
LeftForeArm -49.90317989 -28.37589464 18.07386607
LeftHand 0.874162 5.96507 -3.53657
RightShoulder 1.98785e-016 -4.96962e-017 1.55301e-017
RightArm 28.9357223 -58.30468862 81.8964138
RightForeArm -44.13277519 19.34946355 -8.402974779
RightHand 1.06596 -10.3388 -3.23031
LeftUpLeg -0.0731924836 1.344399757 0.8304905797
LeftLeg 15.08222283 0 0
LeftFoot -12.39003679 -1.489514091 -5.911993551
LeftToes 8.82235e-011 9.04645e-011 1.87288e-011
375
root 20.50672151 39.4131 -70.7897611 179.6346605 27.12295643 178.3588851
RightUpLeg -28.18154271 -3.909719189 -0.03608032646
RightLeg 34.79929796 4.990500589 -2.199771503
RightFoot -0.3413570179 9.973217571 2.203466236
RightToes 2.32829e-010 -1.59028e-015 9.93923e-017
Spine -6.99225 -4.80394 -9.49489
Spine1 10.8103 -5.72047 3.70045
HEad -8.50494 4.3499 1.50706
LeftShoulder1 9.93923e-017 0 1.22299e-017
LeftArm 29.324 17.2202 -77.0933
LeftForeArm -48.1612 -29.8036 18.6995
LeftHand 0.872868 5.99207 -3.07255
RightShoulder 1.98785e-016 -4.96962e-017 1.55301e-017
RightArm 28.776 -60.6454 79.5323
RightForeArm -43.3166 19.3197 -8.73957
RightHand 1.06334 -10.2749 -3.3763
LeftUpLeg 3.353979325 1.084696602 1.161469455
LeftLeg 12.81570782 0 0
LeftFoot -12.89304044 -0.3880794903 -6.155131112
LeftToes 8.82235e-011 9.04645e-011 1.87288e-011
376
root 21.38918986 39.2327 -71.90388687 179.7261315 28.24080015 178.3322839
RightUpLeg -28.45779892 -3.628512968 0.3149286904
RightLeg 24.14270046 4.354326873 -1.580231453
RightFoot 1.046384717 8.162295179 3.056666075
RightToes 2.32829e-010 -1.59028e-015 9.93923e-017
Spine -7.65058 -5.2852 -9.75784
Spine1 11.3122 -6.21112 4.32768
HEad -8.52028 4.71785 1.51934
LeftShoulder1 9.93923e-017 0 1.22299e-017
LeftArm 29.4603 14.1658 -76.6241
LeftForeArm -47.981 -30.6495 19.0576
LeftHand 0.885736 6.13897 -2.34913
RightShoulder 1.98785e-016 -4.96962e-017 1.55301e-017
RightArm 27.6383 -62.1936 77.3537
RightForeArm -41.7608 19.1113 -8.25781
RightHand 1.03651 -10.1069 -3.19424
LeftUpLeg 6.582517571 0.670312045 1.232422252
LeftLeg 10.81947007 0 0
LeftFoot -13.30333662 1.42277521 -6.140155499
LeftToes 8.82235e-011 9.04645e-011 1.87288e-011
377
root 22.29090088 39.0802 -73.01519694 179.9900979 29.37374575 178.4802517
RightUpLeg -27.82694131 -0.9251871688 -0.3610490807
RightLeg 12.11794441 1.925509928 -0.4611570183
RightFoot 2.593609875 6.478186422 3.415156339
RightToes 2.32829e-010 -1.59028e-015 9.93923e-017
Spine -8.6081 -5.6719 -9.68894
Spine1 12.1741 -6.65675 4.99614
HEad -8.60171 4.91217 1.54686
LeftShoulder1 9.93923e-017 0 1.22299e-017
LeftArm 29.7915 11.8395 -76.3575
LeftForeArm -47.9949 -30.8542 19.1422
LeftHand 0.888198 6.19945 -2.12654
RightShoulder 1.98785e-016 -4.96962e-017 1.55301e-017
RightArm 26.0322 -63.0557 75.5544
RightForeArm -39.6685 18.7275 -7.09118
RightHand 1.04538 -10.2148 -3.06739
LeftUpLeg 10.7074928 0.5718953169 1.282504385
LeftLeg 6.738081828 0 0
LeftFoot -12.52556908 3.003236911 -6.857665367
LeftToes 8.82235e-011 9.04645e-011 1.87288e-011
378
root 23.2434816 38.8762 -74.13978848 -179.8775217 30.40966906 178.3951966
RightUpLeg -27.56910527 2.368546277 -1.865518013
RightLeg 2.182402805 -0.59498314 0.6741174502
RightFoot 2.671422136 5.006681804 3.77751482
RightToes 2.32829e-010 -1.59028e-015 9.93923e-017
Spine -9.49751 -6.05755 -10.1279
Spine1 12.8917 -7.15563 5.92882
HEad -8.55562 5.05889 1.51876
LeftShoulder1 9.93923e-017 0 1.22299e-017
LeftArm 29.9484 10.6982 -76.4209
LeftForeArm -47.6176 -30.435 18.9857
LeftHand 0.867906 6.04462 -1.99351
RightShoulder 1.98785e-016 -4.96962e-017 1.55301e-017
RightArm 23.3053 -63.3984 74.2572
RightForeArm -36.4712 18.0456 -5.27696
RightHand 1.09058 -10.5989 -3.03782
LeftUpLeg 16.28302103 1.022354929 0.9708372303
LeftLeg -0.28367356 0 0
LeftFoot -9.839257671 4.118153181 -8.857431108
LeftToes 8.82235e-011 9.04645e-011 1.87288e-011
379
root 24.26370243 38.601 -75.30288736 -179.9431486 31.77892861 177.998896
RightUpLeg -29.35440778 2.42403742 -2.040766119
RightLeg -0.4547467479 0.3010082862 0.3105151306
RightFoot 0.165581152 3.869207243 4.901405478
RightToes 2.32829e-010 -1.59028e-015 9.93923e-017
Spine -10.2439 -6.31079 -10.7884
Spine1 13.3337 -7.44763 6.66218
HEad -8.54849 5.23696 1.35208
LeftShoulder1 9.93923e-017 0 1.22299e-017
LeftArm 29.7653 10.9109 -76.8662
LeftForeArm -47.4502 -29.5983 18.6497
LeftHand 0.826019 5.78296 -1.20192
RightShoulder 1.98785e-016 -4.96962e-017 1.55301e-017
RightArm 18.8351 -63.2616 73.5959
RightForeArm -32.1964 17.001 -3.12863
RightHand 1.1245 -10.9169 -2.9294
LeftUpLeg 20.42312077 1.565223824 0.9546535655
LeftLeg -3.756877186 0 0
LeftFoot -7.840272468 4.757726529 -11.699811
LeftToes 8.82235e-011 9.04645e-011 1.87288e-011
